<?xml version="1.0" encoding="utf-8"?>
<!-- Generator: Adobe Illustrator 26.0.2, SVG Export Plug-In . SVG Version: 6.00 Build 0)  -->
<svg version="1.1" id="Livello_1" xmlns="http://www.w3.org/2000/svg" xmlns:xlink="http://www.w3.org/1999/xlink" x="0px" y="0px"
	 viewBox="0 0 951.7 448.2" style="enable-background:new 0 0 951.7 448.2;" xml:space="preserve">
<g>
	<path d="M12.6,5.8h80.6c20,0,35.1,5.3,45.8,16.5c7.7,8,12.2,18.9,12.2,32.5c0,21-11.7,34.1-30.6,39.9v0.8
		c21.6,5.1,38.3,20.5,38.3,46c0,14.6-5.1,27.1-13.8,36.5c-10.6,11.4-27.1,18.1-47.6,18.1H12.6V5.8z M90.3,87.2
		c23.2,0,37-11.4,37-31.1c0-18.4-12.5-29.5-33.8-29.5h-57v60.7H90.3z M96.5,174.5c13.6,0,23.4-3.5,29.8-9.6c5.3-5.6,8.5-13,8.5-22.1
		c0-23.7-16.8-35.4-39.9-35.4H36.6v67.1H96.5z"/>
	<path d="M238.8,5.8h26.9L336,196.1h-26.1l-20.2-58h-75.8l-20.5,58h-24.5L238.8,5.8z M220.7,118.6H283l-21.8-63.9
		c-3.7-10.6-8.5-26.9-8.5-26.9h-0.5c0,0-5.1,16-8.8,26.9L220.7,118.6z"/>
	<path d="M356.4,5.8h88.9c33.5,0,56.2,21,56.2,52.2c0,23.2-10.1,39.7-33,47.1v0.8c19.4,6.9,25.5,20.2,27.4,48.4
		c2.1,30.6,5.3,38.3,8.8,40.7v1.1h-25.8c-4-3.5-4.8-10.6-6.9-42.6c-1.9-27.9-13-37.8-38.6-37.8h-53v80.4h-24V5.8z M380.4,96.3h56.4
		c26.6,0,39.9-13.3,39.9-34.9c0-23.2-10.6-34.9-38.6-34.9h-57.7V96.3z"/>
	<path d="M530.5,5.8h30.6l61.7,158.1h0.5L684.6,5.8h31.1v190.3h-22.9V39.6h-0.5c0,0-5.1,14.9-8.5,24l-52.2,132.5h-18.4L561.1,63.5
		c-3.7-9.6-8.5-24-8.5-24H552v156.5h-21.6V5.8z"/>
	<path d="M806.2,5.8h26.9l70.3,190.3h-26.1l-20.2-58h-75.8l-20.5,58h-24.5L806.2,5.8z M788.1,118.6h62.3l-21.8-63.9
		c-3.7-10.6-8.5-26.9-8.5-26.9h-0.5c0,0-5.1,16-8.8,26.9L788.1,118.6z"/>
	<path d="M921.7,169.7h25.8v26.3h-25.8V169.7z"/>
	<path d="M0.6,374.7h23.4c3.2,32.2,22.9,49,58.8,49c26.3,0,45.2-12,45.2-35.7c0-26.1-22.9-32.2-57-39.7c-33.5-7.5-62.3-17-62.3-53
		c0-31.4,26.1-50.3,64.7-50.3c47.6,0,67.3,24.2,72.1,59.3h-22.6c-3.5-27.1-21-40.7-49-40.7c-25.8,0-42.8,10.9-42.8,30.6
		c0,21.6,21.3,27.9,49.8,33.5c37,7.5,70.8,16.5,70.8,59.3c0,35.7-29,55.6-70,55.6C28.3,442.9,2.8,413,0.6,374.7z"/>
	<path d="M161.7,248.8h150.6v21h-63.3v169.3h-24V269.9h-63.3V248.8z"/>
	<path d="M336.5,377.7V248.8h24v126.4c0,32.5,18.4,46.3,49.8,46.3c30.1,0,48.2-13.8,48.2-46.3V248.8h24v128.8
		c0,46-32.2,64.4-72.9,64.4C367.9,442.1,336.5,423.7,336.5,377.7z"/>
	<path d="M518.5,248.8h69.2c57.2,0,84.4,38.9,84.4,95.8s-29,94.5-86.2,94.5h-67.3V248.8z M585,418.1c44.7,0,62.5-28.7,62.5-73.5
		s-16-75-60.7-75h-44.4v148.5H585z"/>
	<path d="M704.8,248.8h24v190.3h-24V248.8z"/>
	<path d="M761.5,343.9c0-57,35.7-99.3,93.1-99.3s93.1,42.3,93.1,99.3c0,57-35.7,99.3-93.1,99.3S761.5,400.8,761.5,343.9z
		 M923.3,343.9c0-44.7-24-78.5-68.7-78.5c-44.7,0-68.7,33.8-68.7,78.5c0,44.7,24,78.2,68.7,78.2
		C899.3,422.1,923.3,388.6,923.3,343.9z"/>
</g>
</svg>
