<?xml version="1.0" encoding="utf-8"?>
<!-- Generator: Adobe Illustrator 26.0.2, SVG Export Plug-In . SVG Version: 6.00 Build 0)  -->
<svg version="1.1" id="Livello_1" xmlns="http://www.w3.org/2000/svg" xmlns:xlink="http://www.w3.org/1999/xlink" x="0px" y="0px"
	 viewBox="0 0 1920 204" style="enable-background:new 0 0 1920 204;" xml:space="preserve">
<g>
	<path d="M0,4.3h82.2c20.4,0,35.8,5.4,46.7,16.8c7.9,8.1,12.5,19.3,12.5,33.1c0,21.4-11.9,34.7-31.2,40.7v0.8
		c22,5.2,39.1,20.9,39.1,47c0,14.9-5.2,27.7-14.1,37.2c-10.9,11.7-27.7,18.5-48.6,18.5H0V4.3z M79.3,87.4
		c23.6,0,37.7-11.7,37.7-31.8c0-18.7-12.8-30.1-34.5-30.1H24.4v61.9H79.3z M85.5,176.4c13.8,0,23.9-3.5,30.4-9.8
		c5.4-5.7,8.7-13.3,8.7-22.5c0-24.2-17.1-36.1-40.7-36.1H24.4v68.4H85.5z"/>
	<path d="M230.7,4.3h27.4l71.7,194.1h-26.6l-20.6-59.2h-77.4l-20.9,59.2h-25L230.7,4.3z M212.2,119.4h63.5l-22.3-65.1
		c-3.8-10.9-8.7-27.4-8.7-27.4h-0.5c0,0-5.2,16.3-9,27.4L212.2,119.4z"/>
	<path d="M350.7,4.3h90.7c34.2,0,57.3,21.4,57.3,53.2c0,23.6-10.3,40.4-33.7,48v0.8c19.8,7.1,26.1,20.6,28,49.4
		c2.2,31.2,5.4,39.1,9,41.5v1.1h-26.3c-4.1-3.5-4.9-10.9-7.1-43.4c-1.9-28.5-13.3-38.5-39.4-38.5h-54v82h-24.4V4.3z M375.1,96.6
		h57.5c27.1,0,40.7-13.6,40.7-35.6c0-23.6-10.9-35.6-39.4-35.6h-58.9V96.6z"/>
	<path d="M528.2,4.3h31.2l63,161.2h0.5L685.3,4.3h31.8v194.1h-23.3V38.8h-0.5c0,0-5.2,15.2-8.7,24.4l-53.2,135.2h-18.7L559.4,63.2
		c-3.8-9.8-8.7-24.4-8.7-24.4h-0.5v159.6h-22V4.3z"/>
	<path d="M809.4,4.3h27.4l71.7,194.1h-26.6l-20.6-59.2h-77.4L763,198.4h-25L809.4,4.3z M790.9,119.4h63.5l-22.3-65.1
		c-3.8-10.9-8.7-27.4-8.7-27.4h-0.5c0,0-5.2,16.3-9,27.4L790.9,119.4z"/>
	<path d="M927.2,171.5h26.3v26.9h-26.3V171.5z"/>
	<path d="M967.3,132.7h23.9c3.3,32.8,23.3,49.9,60,49.9c26.9,0,46.1-12.2,46.1-36.4c0-26.6-23.3-32.8-58.1-40.4
		c-34.2-7.6-63.5-17.4-63.5-54c0-32,26.6-51.3,66-51.3c48.6,0,68.7,24.7,73.6,60.5h-23.1c-3.5-27.7-21.4-41.5-49.9-41.5
		c-26.3,0-43.7,11.1-43.7,31.2c0,22,21.7,28.5,50.8,34.2c37.7,7.6,72.2,16.8,72.2,60.5c0,36.4-29.6,56.7-71.4,56.7
		C995.6,202.2,969.5,171.8,967.3,132.7z"/>
	<path d="M1127.7,4.3h153.6v21.4h-64.6v172.6h-24.4V25.8h-64.6V4.3z"/>
	<path d="M1302.3,135.7V4.3h24.4v128.9c0,33.1,18.7,47.2,50.8,47.2c30.7,0,49.1-14.1,49.1-47.2V4.3h24.4v131.4
		c0,47-32.8,65.7-74.4,65.7C1334.3,201.4,1302.3,182.7,1302.3,135.7z"/>
	<path d="M1484.1,4.3h70.6c58.4,0,86,39.6,86,97.7s-29.6,96.4-87.9,96.4h-68.7V4.3z M1552,177c45.6,0,63.8-29.3,63.8-74.9
		s-16.3-76.5-61.9-76.5h-45.3V177H1552z"/>
	<path d="M1670.3,4.3h24.4v194.1h-24.4V4.3z"/>
	<path d="M1724.3,101.2c0-58.1,36.4-101.2,95-101.2c58.6,0,95,43.2,95,101.2c0,58.1-36.4,101.2-95,101.2
		C1760.7,202.5,1724.3,159.3,1724.3,101.2z M1889.3,101.2c0-45.6-24.4-80.1-70-80.1c-45.6,0-70,34.5-70,80.1
		c0,45.6,24.4,79.8,70,79.8C1864.9,181,1889.3,146.8,1889.3,101.2z"/>
</g>
</svg>
